<svg id="Layer_2" data-name="Layer 2" xmlns="http://www.w3.org/2000/svg" xmlns:xlink="http://www.w3.org/1999/xlink" viewBox="0 0 125.706 37.931"><defs><style>.cls-1{fill:#00c9db;}.cls-2{fill:url(#New_Gradient_Swatch_61);}.cls-3{fill:url(#New_Gradient_Swatch_8);}.cls-4{fill:url(#New_Gradient_Swatch_8-2);}.cls-5{fill:url(#New_Gradient_Swatch_16);}.cls-6{fill:url(#New_Gradient_Swatch_16-2);}.cls-7{fill:url(#New_Gradient_Swatch_16-3);}.cls-8{fill:url(#New_Gradient_Swatch_8-3);}.cls-9{fill:url(#New_Gradient_Swatch_16-4);}.cls-10{fill:url(#New_Gradient_Swatch_8-4);}.cls-11{fill:url(#New_Gradient_Swatch_16-5);}.cls-12{fill:url(#New_Gradient_Swatch_8-5);}.cls-13{fill:url(#New_Gradient_Swatch_8-6);}.cls-14{fill:url(#New_Gradient_Swatch_16-6);}.cls-15{fill:url(#New_Gradient_Swatch_8-7);}.cls-16{fill:url(#New_Gradient_Swatch_16-7);}.cls-17{fill:url(#New_Gradient_Swatch_61-2);}.cls-18{fill:url(#New_Gradient_Swatch_61-3);}.cls-19{fill:url(#New_Gradient_Swatch_61-4);}.cls-20{fill:url(#New_Gradient_Swatch_61-5);}.cls-21{fill:url(#New_Gradient_Swatch_8-8);}.cls-22{fill:url(#New_Gradient_Swatch_61-6);}.cls-23{fill:url(#New_Gradient_Swatch_8-9);}.cls-24{fill:url(#New_Gradient_Swatch_61-7);}.cls-25{fill:url(#New_Gradient_Swatch_16-8);}.cls-26{fill:url(#New_Gradient_Swatch_61-8);}.cls-27{fill:url(#New_Gradient_Swatch_16-9);}.cls-28{fill:url(#New_Gradient_Swatch_61-9);}.cls-29{fill:url(#New_Gradient_Swatch_8-10);}.cls-30{fill:url(#New_Gradient_Swatch_16-10);}.cls-31{fill:#f1f1f8;}</style><linearGradient id="New_Gradient_Swatch_61" x1="3676.932" y1="-3909.195" x2="3670.354" y2="-3908.098" gradientTransform="translate(3745.091 3891.542) rotate(-87.025)" gradientUnits="userSpaceOnUse"><stop offset="0" stop-color="#f0584b"/><stop offset="1" stop-color="#c73f3d"/></linearGradient><linearGradient id="New_Gradient_Swatch_8" x1="3660.727" y1="-3907.35" x2="3681.381" y2="-3907.35" gradientTransform="translate(3745.091 3891.542) rotate(-87.025)" gradientUnits="userSpaceOnUse"><stop offset="0" stop-color="#fcba39"/><stop offset="1" stop-color="#d96d2d"/></linearGradient><linearGradient id="New_Gradient_Swatch_8-2" x1="3660.694" y1="-3906.891" x2="3681.381" y2="-3906.891" xlink:href="#New_Gradient_Swatch_8"/><radialGradient id="New_Gradient_Swatch_16" cx="3671.349" cy="-3923.346" r="14.151" gradientTransform="matrix(0.053, -1.035, 1.027, 0.054, 3851.362, 4031.935)" gradientUnits="userSpaceOnUse"><stop offset="0" stop-color="#f9b314"/><stop offset="1" stop-color="#ec5222"/></radialGradient><radialGradient id="New_Gradient_Swatch_16-2" cx="3671.352" cy="-3923.353" r="14.157" xlink:href="#New_Gradient_Swatch_16"/><radialGradient id="New_Gradient_Swatch_16-3" cx="3671.353" cy="-3923.35" r="14.154" xlink:href="#New_Gradient_Swatch_16"/><linearGradient id="New_Gradient_Swatch_8-3" x1="3660.556" y1="-3906.967" x2="3681.461" y2="-3906.967" xlink:href="#New_Gradient_Swatch_8"/><radialGradient id="New_Gradient_Swatch_16-4" cx="3671.354" cy="-3923.333" r="14.138" xlink:href="#New_Gradient_Swatch_16"/><linearGradient id="New_Gradient_Swatch_8-4" x1="3660.546" y1="-3908.7" x2="3681.466" y2="-3908.7" xlink:href="#New_Gradient_Swatch_8"/><radialGradient id="New_Gradient_Swatch_16-5" cx="3671.353" cy="-3923.38" r="14.181" xlink:href="#New_Gradient_Swatch_16"/><linearGradient id="New_Gradient_Swatch_8-5" x1="3660.549" y1="-3914.647" x2="3681.465" y2="-3914.647" xlink:href="#New_Gradient_Swatch_8"/><linearGradient id="New_Gradient_Swatch_8-6" x1="3660.588" y1="-3908.862" x2="3681.339" y2="-3908.862" xlink:href="#New_Gradient_Swatch_8"/><radialGradient id="New_Gradient_Swatch_16-6" cx="3671.305" cy="-3923.236" r="14.037" xlink:href="#New_Gradient_Swatch_16"/><linearGradient id="New_Gradient_Swatch_8-7" x1="3660.554" y1="-3907.594" x2="3681.463" y2="-3907.594" xlink:href="#New_Gradient_Swatch_8"/><radialGradient id="New_Gradient_Swatch_16-7" cx="3671.354" cy="-3923.363" r="14.166" xlink:href="#New_Gradient_Swatch_16"/><linearGradient id="New_Gradient_Swatch_61-2" x1="3677.207" y1="-3907.439" x2="3670.665" y2="-3906.349" xlink:href="#New_Gradient_Swatch_61"/><linearGradient id="New_Gradient_Swatch_61-3" x1="3677.176" y1="-3907.723" x2="3670.603" y2="-3906.628" xlink:href="#New_Gradient_Swatch_61"/><linearGradient id="New_Gradient_Swatch_61-4" x1="3676.648" y1="-3910.847" x2="3670.075" y2="-3909.751" xlink:href="#New_Gradient_Swatch_61"/><linearGradient id="New_Gradient_Swatch_61-5" x1="3676.832" y1="-3910.611" x2="3670.173" y2="-3909.501" xlink:href="#New_Gradient_Swatch_61"/><linearGradient id="New_Gradient_Swatch_8-8" x1="3660.538" y1="-3907.321" x2="3681.471" y2="-3907.321" xlink:href="#New_Gradient_Swatch_8"/><linearGradient id="New_Gradient_Swatch_61-6" x1="3677.17" y1="-3907.74" x2="3670.604" y2="-3906.646" xlink:href="#New_Gradient_Swatch_61"/><linearGradient id="New_Gradient_Swatch_8-9" x1="3659.879" y1="-3906.883" x2="3681.853" y2="-3906.883" xlink:href="#New_Gradient_Swatch_8"/><linearGradient id="New_Gradient_Swatch_61-7" x1="3677.399" y1="-3907.485" x2="3670.484" y2="-3906.333" xlink:href="#New_Gradient_Swatch_61"/><radialGradient id="New_Gradient_Swatch_16-8" cx="3671.352" cy="-3923.359" r="14.163" xlink:href="#New_Gradient_Swatch_16"/><linearGradient id="New_Gradient_Swatch_61-8" x1="3677.189" y1="-3907.642" x2="3670.617" y2="-3906.547" xlink:href="#New_Gradient_Swatch_61"/><radialGradient id="New_Gradient_Swatch_16-9" cx="3671.36" cy="-3923.593" r="14.37" xlink:href="#New_Gradient_Swatch_16"/><linearGradient id="New_Gradient_Swatch_61-9" x1="3677.201" y1="-3907.437" x2="3670.669" y2="-3906.349" xlink:href="#New_Gradient_Swatch_61"/><linearGradient id="New_Gradient_Swatch_8-10" x1="3660.546" y1="-3907.86" x2="3681.466" y2="-3907.86" xlink:href="#New_Gradient_Swatch_8"/><radialGradient id="New_Gradient_Swatch_16-10" cx="3671.351" cy="-3923.358" r="14.161" xlink:href="#New_Gradient_Swatch_16"/></defs><title>logo</title><path class="cls-1" d="M30.359,12.894C30.245,12.7,30.127,12.5,30,12.3,25.286,4.982,18.7-.609,15.36.138A5.518,5.518,0,0,0,12.451,2.33,9.888,9.888,0,0,1,18.122,4.6a15.95,15.95,0,0,1,3.55,2.593c1.575,1.263,6.809,7.237,9.71,14.352,1.115,2.868,1.434,5.194.832,6.13l-0.02.03c-0.651,1.012-3.216,1.7-6.655,1.756a17.031,17.031,0,0,1-1.2,3.26c5.486,0.2,10.016-.769,11.294-2.792C37.42,27.2,34.968,19.681,30.359,12.894Z" transform="translate(0 -0.071)"/><path class="cls-2" d="M34.385,20.214q-0.409-.965-0.9-1.958a44.752,44.752,0,0,1-1.676,4.492c0.755,2.3.917,4.124,0.4,4.925l-0.02.03a1.888,1.888,0,0,1-.535.513C32.949,27.537,35.423,26.335,34.385,20.214Z" transform="translate(0 -0.071)"/><path class="cls-1" d="M30.755,8.94L30.78,8.968c0.83,0.927.791,3.761-.132,7.3-3.558,9.417-5.384,10.522-9.5,14.622-2.807,2.263-5.336,3.437-6.508,3.053L14.6,33.929c-0.786-.257-1.658-1.444-2.435-3.251A39.614,39.614,0,0,1,8.2,29.334c1.255,4.521,3.141,7.874,5.157,8.514,3.021,1.018,9.4-3.13,14.653-9.179C34.667,20.753,36.327,8.954,33.8,6.2c-1.629-1.776-6.29-2.041-11.74-.937a43.824,43.824,0,0,1,3.872,2.8C28.335,7.918,30.121,8.232,30.755,8.94Z" transform="translate(0 -0.071)"/><path class="cls-3" d="M33.943,19.213l-0.028-.06c0,0.009.008,0.02,0.013,0.03Z" transform="translate(0 -0.071)"/><path class="cls-4" d="M34.347,20.13L34.333,20.1l0.012,0.027Z" transform="translate(0 -0.071)"/><path class="cls-5" d="M34.333,20.1c-0.1-.239-0.208-0.479-0.317-0.721,0.063,0.14.123,0.278,0.184,0.417C34.243,19.894,34.29,20,34.333,20.1Z" transform="translate(0 -0.071)"/><path class="cls-6" d="M34.386,20.225c1.49,3.541,2.114,6.7,1.637,8.688,0.01-.008.022-0.015,0.03-0.023,0.486-1.972-.177-5.142-1.669-8.67v0.005Z" transform="translate(0 -0.071)"/><path class="cls-7" d="M33.489,18.256c0.148,0.3.289,0.6,0.427,0.9C33.778,18.856,33.637,18.557,33.489,18.256Z" transform="translate(0 -0.071)"/><path class="cls-8" d="M34.345,20.124L34.333,20.1c-0.043-.1-0.09-0.2-0.133-0.3C34.248,19.9,34.3,20.015,34.345,20.124Z" transform="translate(0 -0.071)"/><path class="cls-9" d="M34.345,20.124L34.333,20.1c-0.043-.1-0.09-0.2-0.133-0.3C34.248,19.9,34.3,20.015,34.345,20.124Z" transform="translate(0 -0.071)"/><path class="cls-10" d="M32.066,27.867a1.279,1.279,0,0,0,.128-0.164A1.37,1.37,0,0,1,32.066,27.867Z" transform="translate(0 -0.071)"/><path class="cls-11" d="M32.066,27.867a1.279,1.279,0,0,0,.128-0.164A1.37,1.37,0,0,1,32.066,27.867Z" transform="translate(0 -0.071)"/><path class="cls-12" d="M34.386,20.225c1.033,6.111-1.438,7.313-2.727,7.991l0.013-.011c-1.111.762-3.5,1.245-6.507,1.259a44.4,44.4,0,0,1-8.99-1.623,9.052,9.052,0,0,0,.177,1.357c0.037,0.175.08,0.348,0.126,0.519,8.243,2.233,17.182,1.176,19.545-.8C36.5,26.928,35.876,23.766,34.386,20.225Z" transform="translate(0 -0.071)"/><path class="cls-13" d="M31.914,28.017c0.031-.028.061-0.056,0.089-0.083C31.975,27.961,31.945,27.989,31.914,28.017Z" transform="translate(0 -0.071)"/><path class="cls-14" d="M31.914,28.017c0.031-.028.061-0.056,0.089-0.083C31.975,27.961,31.945,27.989,31.914,28.017Z" transform="translate(0 -0.071)"/><path class="cls-15" d="M33.915,19.154c-0.138-.3-0.279-0.6-0.427-0.9q0.229,0.466.44,0.927C33.923,19.173,33.92,19.163,33.915,19.154Z" transform="translate(0 -0.071)"/><path class="cls-16" d="M33.915,19.154c-0.138-.3-0.279-0.6-0.427-0.9q0.229,0.466.44,0.927C33.923,19.173,33.92,19.163,33.915,19.154Z" transform="translate(0 -0.071)"/><path class="cls-17" d="M34.385,20.219v0c-0.012-.029-0.026-0.056-0.037-0.085l0,0.007Z" transform="translate(0 -0.071)"/><path class="cls-18" d="M34.016,19.376l-0.073-.163c0.014,0.029.025,0.057,0.038,0.086Z" transform="translate(0 -0.071)"/><path class="cls-19" d="M31.673,28.2a2.342,2.342,0,0,0,.241-0.188A2.469,2.469,0,0,1,31.673,28.2Z" transform="translate(0 -0.071)"/><path class="cls-20" d="M32,27.934c0.023-.023.044-0.045,0.063-0.067C32.046,27.889,32.025,27.912,32,27.934Z" transform="translate(0 -0.071)"/><path class="cls-21" d="M33.981,19.3c-0.013-.028-0.024-0.057-0.038-0.086l-0.014-.03C33.947,19.222,33.963,19.26,33.981,19.3Z" transform="translate(0 -0.071)"/><path class="cls-22" d="M33.981,19.3c-0.013-.028-0.024-0.057-0.038-0.086l-0.014-.03C33.947,19.222,33.963,19.26,33.981,19.3Z" transform="translate(0 -0.071)"/><path class="cls-23" d="M34.349,20.137l0-.007,0-.005Z" transform="translate(0 -0.071)"/><path class="cls-24" d="M34.349,20.137l0-.007,0-.005Z" transform="translate(0 -0.071)"/><path class="cls-25" d="M34.2,19.794c-0.061-.139-0.121-0.277-0.184-0.417L33.981,19.3C34.056,19.465,34.127,19.629,34.2,19.794Z" transform="translate(0 -0.071)"/><path class="cls-26" d="M34.2,19.794c-0.061-.139-0.121-0.277-0.184-0.417L33.981,19.3C34.056,19.465,34.127,19.629,34.2,19.794Z" transform="translate(0 -0.071)"/><path class="cls-27" d="M34.386,20.225V20.219l-0.036-.083C34.362,20.166,34.373,20.195,34.386,20.225Z" transform="translate(0 -0.071)"/><path class="cls-28" d="M34.386,20.225V20.219l-0.036-.083C34.362,20.166,34.373,20.195,34.386,20.225Z" transform="translate(0 -0.071)"/><path class="cls-29" d="M34.386,20.225c-0.013-.03-0.024-0.059-0.037-0.088l0-.012c-0.047-.109-0.1-0.22-0.145-0.331-0.072-.165-0.144-0.329-0.219-0.495-0.018-.039-0.034-0.077-0.052-0.116q-0.212-.46-0.44-0.927a44.752,44.752,0,0,1-1.676,4.492c0.755,2.3.917,4.124,0.4,4.925l-0.02.03a1.279,1.279,0,0,1-.128.164c-0.02.022-.041,0.045-0.063,0.067s-0.058.055-.089,0.083a2.342,2.342,0,0,1-.241.188l-0.013.011C32.948,27.537,35.419,26.336,34.386,20.225Z" transform="translate(0 -0.071)"/><path class="cls-30" d="M34.386,20.225c-0.013-.03-0.024-0.059-0.037-0.088l0-.012c-0.047-.109-0.1-0.22-0.145-0.331-0.072-.165-0.144-0.329-0.219-0.495-0.018-.039-0.034-0.077-0.052-0.116q-0.212-.46-0.44-0.927a44.752,44.752,0,0,1-1.676,4.492c0.755,2.3.917,4.124,0.4,4.925l-0.02.03a1.279,1.279,0,0,1-.128.164c-0.02.022-.041,0.045-0.063,0.067s-0.058.055-.089,0.083a2.342,2.342,0,0,1-.241.188l-0.013.011C32.948,27.537,35.419,26.336,34.386,20.225Z" transform="translate(0 -0.071)"/><path class="cls-1" d="M33.984,19.306l0-.007c-0.018-.039-0.034-0.077-0.052-0.116l-0.009-.019c-0.138-.3-0.281-0.6-0.431-0.908a44.752,44.752,0,0,1-1.676,4.492c0.755,2.3.917,4.124,0.4,4.925l-0.02.03a1.279,1.279,0,0,1-.128.164c-0.019.022-.039,0.042-0.061,0.064s-0.051.048-.077,0.073l-0.014.013a2.536,2.536,0,0,1-.237.185l-0.006,0c-0.059.04-.124,0.08-0.191,0.12l-0.051.029c-0.065.037-.133,0.072-0.2,0.107l-0.07.034c-0.071.034-.144,0.067-0.221,0.1l-0.078.031c-0.08.032-.161,0.064-0.246,0.1l-0.009,0c-0.166.06-.346,0.115-0.533,0.168-0.058.016-.115,0.034-0.175,0.049l-0.2.049-0.24.057-0.182.038c-0.1.02-.2,0.04-0.3,0.059l-0.156.028q-0.193.033-.394,0.062l-0.088.014a22.107,22.107,0,0,1-2.348.2h0q-0.32.011-.653,0.014,0.626-.743,1.237-1.528A36.656,36.656,0,0,0,33.352,9.982c0.53,0.158,1.047.33,1.537,0.526,0.029-1.936-.315-3.459-1.088-4.31-1.162-1.323-3.982-1.8-7.541-1.533l-0.106.009c-0.206.016-.414,0.035-0.626,0.056l-0.178.018c-0.207.022-.415,0.046-0.626,0.073l-0.143.017q-0.376.05-.76,0.108L23.6,4.983q-0.273.044-.549,0.092l-0.32.058-0.465.089-0.21.04,0,0a44.157,44.157,0,0,0-5.954,1.659c-0.217.061-.435,0.124-0.657,0.2-6.3,2.06-11.906,5.446-14.264,8.468l-0.018.023a6.117,6.117,0,0,0-.984,1.728l-0.006.018a3.565,3.565,0,0,0-.108.392l0,0.02A2.862,2.862,0,0,0,0,18.221c-0.106,1.771,1.569,4.134,4.3,6.492A7.332,7.332,0,0,1,4.212,23.6a42.743,42.743,0,0,0,8.716,4.924,29.547,29.547,0,0,0,3.549,1.193v0.005c0.156,0.042.313,0.081,0.469,0.121,0.057,0.014.115,0.029,0.172,0.044-0.214-.053-0.428-0.108-0.641-0.165a9.02,9.02,0,0,0,.887,2.12c0.632,0.166,1.264.309,1.9,0.434-2.017,1.334-3.723,1.964-4.624,1.669L14.6,33.929c-0.786-.257-1.658-1.444-2.435-3.251-1.192-.336-2.33-0.717-3.4-1.128l-0.547-.169c1.243,4.454,3.1,7.761,5.086,8.444,1.9,0.566,5.4-1.553,9.022-5.1,6.387,0.629,12.046-.721,13.3-2.8a3.588,3.588,0,0,0,.394-1.014c-0.08.067-.169,0.132-0.263,0.2,0.094-.064.183-0.13,0.263-0.2h0l0.03-.023C36.581,26.749,35.756,23.2,33.984,19.306ZM34.9,29.579c0.114-.052.224-0.1,0.328-0.158a8.168,8.168,0,0,1-.858.375c0.113-.042.222-0.086,0.327-0.131C34.77,29.636,34.838,29.608,34.9,29.579Zm-1.268.466,0.166-.053q0.189-.059.367-0.122-0.506.179-1.1,0.333Q33.365,30.127,33.636,30.045Zm-0.73.2L33,30.22c-0.205.053-.42,0.1-0.639,0.151l0.046-.01C32.576,30.323,32.744,30.284,32.906,30.244Zm-0.673.155c-0.485.1-1,.191-1.545,0.267l0.1-.013C31.294,30.579,31.778,30.494,32.233,30.4Zm-2.335.368q0.39-.044.763-0.1-0.381.054-.779,0.1Zm-0.028,0c-0.569.063-1.164,0.112-1.778,0.145C28.707,30.882,29.3,30.833,29.871,30.771ZM8.692,24a17.888,17.888,0,0,1-3.836-3.663C4.8,20.258,4.746,20.18,4.7,20.1c-0.014-.02-0.026-0.04-0.039-0.061a4.973,4.973,0,0,1-.344-0.623c-0.02-.044-0.04-0.087-0.057-0.129s-0.033-.085-0.048-0.128-0.032-.094-0.046-0.14-0.021-.074-0.03-0.11c-0.013-.052-0.022-0.1-0.03-0.152,0-.029-0.01-0.058-0.013-0.086a1.39,1.39,0,0,1-.008-0.222V18.416a1.388,1.388,0,0,1,.026-0.194c0-.021.009-0.042,0.014-0.063,0.011-.049.026-0.1,0.042-0.148,0.007-.023.014-0.045,0.023-0.068,0.025-.068.053-0.138,0.086-0.208,0.009-.019.02-0.039,0.03-0.059,0.027-.053.055-0.108,0.087-0.163,0.019-.033.039-0.066,0.059-0.1s0.055-.088.085-0.132,0.047-.072.073-0.109,0.075-.1.114-0.154,0.1-.13.155-0.2l0.081-.1c0.044-.051.09-0.1,0.137-0.156l0.07-.076C5.343,16.3,5.541,16.1,5.758,15.9l0.024-.022c0.078-.072.158-0.144,0.241-0.217l0,0q0.256-.225.543-0.454h0A21.627,21.627,0,0,1,8.4,13.9,75.6,75.6,0,0,1,24.665,8.163c0.438-.05.859-0.084,1.265-0.107h0a15.172,15.172,0,0,1,2.412.032h0.009c0.114,0.011.224,0.025,0.332,0.04l0.01,0a6.679,6.679,0,0,1,.881.18l0.01,0c0.06,0.018.117,0.037,0.174,0.056,0.036,0.011.072,0.023,0.106,0.035L30,8.456c0.04,0.016.079,0.033,0.117,0.05s0.075,0.035.111,0.054,0.078,0.041.115,0.062,0.06,0.035.089,0.053,0.077,0.053.113,0.08c0.021,0.016.043,0.031,0.063,0.047a1.394,1.394,0,0,1,.146.139L30.78,8.968a1.34,1.34,0,0,1,.154.211v0a2.074,2.074,0,0,1,.129.257c0.518,1.226.384,3.761-.416,6.827-3.021,8-4.795,10-7.782,12.933C14.946,28.181,13.274,26.7,8.692,24ZM21.366,30.67c-1.031-.129-2.073-0.3-3.113-0.526q0.452,0.1.905,0.181L19.3,30.352q1.034,0.189,2.061.317h0Zm-4.2-.776q0.487,0.121.976,0.227l0.076,0.015Q17.686,30.023,17.161,29.893Zm6.908,1.018h0q1.035,0.056,2.03.056h0.027q0.977,0,1.9-.05A37.182,37.182,0,0,1,24.069,30.912Zm11.247-1.536,0.088-.048c0.071-.04.138-0.079,0.2-0.12l0.04-.026Q35.492,29.281,35.316,29.375Z" transform="translate(0 -0.071)"/><path class="cls-1" d="M33.489,18.256a44.752,44.752,0,0,1-1.676,4.492c0.755,2.3.917,4.124,0.4,4.925l-0.02.03c-0.674,1.048-3.4,1.746-7.029,1.761C17.477,28.671,14.816,27.6,11.7,25.792c-0.728-.423-1.485-0.885-2.334-1.393L8.692,24a20.2,20.2,0,0,1-3.351-3.039h0a4.213,4.213,0,0,1-1.259-2.507V18.416c0.043-.832.955-1.987,2.485-3.211A40.5,40.5,0,0,1,6.831,11C2.823,13.389.1,16.094,0,18.221c-0.158,2.627,3.6,6.552,8.9,9.836l0.014,0.009q0.406,0.251.824,0.5l0.086,0.051q0.43,0.252.87,0.5l0.036,0.019q0.4,0.222.807,0.436l0.19,0.1c0.287,0.15.575,0.3,0.867,0.443l0.113,0.051h0C22,34.522,33.8,32.827,35.63,29.927,36.953,27.908,35.957,23.275,33.489,18.256Z" transform="translate(0 -0.071)"/><path class="cls-1" d="M14.638,33.94L14.6,33.929c-1.18-.386-2.552-2.859-3.507-6.387-1.59-9.947-.558-11.824.976-17.45,1.308-3.374,2.916-5.665,4.121-5.925l0.036-.006c0.808-.174,2.152.415,3.72,1.587a40.056,40.056,0,0,1,4.1-.833C20.72,1.631,17.423-.323,15.36.138c-3.121.642-6.585,7.448-8.136,15.335C5.39,25.681,9.885,36.8,13.361,37.848c2.3,0.692,6.46-1.4,10.633-5.1a43.64,43.64,0,0,1-4.74-.469C17.241,33.607,15.538,34.235,14.638,33.94Z" transform="translate(0 -0.071)"/><path class="cls-1" d="M15.42,0.129c-2.691.653-5.478,7.386-6.585,15.258C7.6,25.181,11.586,36,14.465,37.994c2.385-.045,5.958-2.081,9.528-5.249a43.64,43.64,0,0,1-4.74-.469c-2.012,1.332-3.715,1.96-4.615,1.665L14.6,33.929c-1.18-.386-2.552-2.859-3.507-6.387-1.59-9.947-.558-11.824.976-17.45,1.308-3.374,2.916-5.665,4.121-5.925l0.036-.006c0.808-.174,2.152.415,3.72,1.587,1.2-.307,2.374-0.552,3.508-0.737l0.557-.129C20.728,1.649,17.48-.282,15.42.129Z" transform="translate(0 -0.071)"/><path class="cls-1" d="M22.348,34.123c0.545-.432,1.1-0.891,1.646-1.379a43.64,43.64,0,0,1-4.74-.469c-2.012,1.332-3.715,1.96-4.615,1.665L14.6,33.929a1.884,1.884,0,0,1-.63-0.387C14.957,34.621,16.75,36.718,22.348,34.123Z" transform="translate(0 -0.071)"/><path class="cls-1" d="M24.015,4.882L24,4.866a6.918,6.918,0,0,0-6.043-1.315,8.226,8.226,0,0,0-1.906.661c0.048-.016.1-0.034,0.143-0.045l0.036-.006c0.808-.174,2.152.415,3.72,1.587,1.2-.307,2.374-0.552,3.508-0.737Z" transform="translate(0 -0.071)"/><path class="cls-31" d="M62.4,32.232H47.833V5.926H52.2V28.545H62.4v3.687Z" transform="translate(0 -0.071)"/><path class="cls-31" d="M81.624,24h-12.8a5.413,5.413,0,0,0,1.605,4.017,5.972,5.972,0,0,0,4.21,1.413,9.284,9.284,0,0,0,5.522-1.8v3.43a12.615,12.615,0,0,1-6.788,1.614,8.4,8.4,0,0,1-6.5-2.559q-2.357-2.559-2.357-7.2a10.009,10.009,0,0,1,2.6-7.145,8.491,8.491,0,0,1,6.448-2.761,7.4,7.4,0,0,1,5.962,2.477,10.282,10.282,0,0,1,2.11,6.879V24Zm-4.109-3.009a5.484,5.484,0,0,0-1.082-3.568A3.616,3.616,0,0,0,73.5,16.144a4.13,4.13,0,0,0-3.109,1.339,6.118,6.118,0,0,0-1.568,3.5h8.7Z" transform="translate(0 -0.071)"/><path class="cls-31" d="M102.408,32.232H98.152V21.647q0-5.265-3.724-5.265a4.066,4.066,0,0,0-3.21,1.458,5.41,5.41,0,0,0-1.266,3.678V32.232H85.678V13.447h4.274v3.119h0.073a6.7,6.7,0,0,1,6.09-3.559A5.672,5.672,0,0,1,100.794,15a8.938,8.938,0,0,1,1.614,5.751V32.232Z" transform="translate(0 -0.071)"/><path class="cls-31" d="M115.928,32.672a9.311,9.311,0,0,1-6.943-2.632,9.509,9.509,0,0,1-2.6-6.98,9.9,9.9,0,0,1,2.706-7.393,9.95,9.95,0,0,1,7.292-2.66,9.012,9.012,0,0,1,6.861,2.587,9.992,9.992,0,0,1,2.458,7.173,9.845,9.845,0,0,1-2.651,7.2A9.522,9.522,0,0,1,115.928,32.672Zm0.2-16.272a4.858,4.858,0,0,0-3.944,1.743,7.3,7.3,0,0,0-1.449,4.806A6.873,6.873,0,0,0,112.2,27.6a4.929,4.929,0,0,0,3.926,1.7,4.677,4.677,0,0,0,3.862-1.669,7.389,7.389,0,0,0,1.348-4.751,7.5,7.5,0,0,0-1.348-4.788A4.655,4.655,0,0,0,116.13,16.4Z" transform="translate(0 -0.071)"/></svg>